<svg xmlns="http://www.w3.org/2000/svg" width="1046" height="220" viewBox="0 0 1046 220"><path fill="#F1F1F1" d="M96.5 136.9c-1.87 5.27-3.93 9.8-6.2 13.6-2.2 3.8-4.9 6.93-8.1 9.4-3.2 2.4-7.07 4.17-11.6 5.3-4.47 1.2-9.87 1.8-16.2 1.8-15.27 0-26.67-3.33-34.2-10C12.73 150.33 9 140.37 9 127.1 9 113.9 12.67 104 20 97.4s18.43-9.9 33.3-9.9c4.67 0 8.93.3 12.8.9 3.93.6 7.53 1.43 10.8 2.5 3.27 1 6.23 2.17 8.9 3.5 2.67 1.27 5.07 2.6 7.2 4V96.9c0-2.47-.73-4.73-2.2-6.8-1.47-2.13-3.63-3.97-6.5-5.5-2.87-1.6-6.47-2.83-10.8-3.7-4.27-.87-9.23-1.3-14.9-1.3-6.8 0-13.1.67-18.9 2-5.8 1.27-11.53 3.23-17.2 5.9L42.2 51H69.9c12 0 22.03 1.13 30.1 3.4s14.53 5.47 19.4 9.6c4.93 4.13 8.43 9.13 10.5 15 2.07 5.8 3.1 12.27 3.1 19.4V165H93l6.3-27.2zm-25.3-7.8c4 0 7.4-.07 10.2-.2 2.8-.2 5.03-.5 6.7-.9 1.73-.4 2.97-.9 3.7-1.5.8-.67 1.2-1.47 1.2-2.4 0-.87-.4-1.6-1.2-2.2-.73-.6-1.97-1.1-3.7-1.5-1.67-.4-3.9-.67-6.7-.8-2.8-.2-6.2-.3-10.2-.3-4.13 0-7.63.1-10.5.3-2.8.13-5.07.4-6.8.8-1.73.33-3 .8-3.8 1.4-.73.6-1.1 1.37-1.1 2.3s.37 1.73 1.1 2.4c.8.6 2.07 1.1 3.8 1.5s4 .7 6.8.9c2.87.13 6.37.2 10.5.2zM146.94 165V15h40V165zM277.24 15h40V165h-40v-9.4c-7.66 7.67-18.33 11.5-32 11.5-15.66 0-27.33-4.93-35-14.8-7.6-9.87-11.4-24.63-11.4-44.3 0-19.53 3.84-34.23 11.5-44.1 7.67-9.87 19.37-14.8 35.1-14.8 4 0 7.77.27 11.3.8 3.54.53 6.8 1.53 9.8 3s5.74 3.5 8.2 6.1c2.54 2.53 4.74 5.83 6.6 9.9l2.8-1.2-6.9-16.6zm-19.3 74.2c-7.06 0-12.5 1.43-16.3 4.3-3.73 2.87-5.6 7.77-5.6 14.7 0 3.53.47 6.53 1.4 9 1 2.4 2.4 4.33 4.2 5.8 1.87 1.47 4.17 2.53 6.9 3.2 2.74.6 5.87.9 9.4.9 3.6 0 6.64-.33 9.1-1 2.47-.67 4.44-1.73 5.9-3.2 1.54-1.53 2.64-3.5 3.3-5.9.67-2.4 1-5.33 1-8.8s-.33-6.4-1-8.8c-.66-2.47-1.76-4.43-3.3-5.9-1.46-1.53-3.43-2.63-5.9-3.3-2.46-.67-5.5-1-9.1-1zm113.47 29.4c1.34 2.47 3.4 4.17 6.2 5.1 2.8.87 6.5 1.3 11.1 1.3h53.1l-10.8 40h-40.4c-20.66 0-36.06-4.83-46.2-14.5-10.06-9.67-15.1-24.13-15.1-43.4s4.84-33.77 14.5-43.5c9.74-9.73 24.54-14.6 44.4-14.6 9.94 0 18.57 1.2 25.9 3.6 7.34 2.33 13.44 5.67 18.3 10 4.87 4.33 8.5 9.6 10.9 15.8 2.4 6.13 3.6 13 3.6 20.6 0 6.93-.96 13.47-2.9 19.6zm38.1-19.1c0-3.73-1.5-6.4-4.5-8-2.93-1.67-7.93-2.5-15-2.5-6.06 0-10.7.73-13.9 2.2-3.13 1.4-5.16 4.17-6.1 8.3zm82.44-31.8 2.8 1.2c1.8-4.07 3.9-7.37 6.3-9.9 2.4-2.6 5.03-4.63 7.9-6.1s6-2.47 9.4-3 7-.8 10.8-.8c15.13 0 26.37 4.93 33.7 14.8 7.4 9.87 11.1 24.57 11.1 44.1v57h-40V108.2c0-6.93-1.43-11.83-4.3-14.7s-7.37-4.3-13.5-4.3-10.57 1.43-13.3 4.3c-2.66 2.87-4 7.77-4 14.7V165h-40V51h40zM649.4 165h-17c-13.27 0-23.23-3.23-29.9-9.7-6.6-6.53-9.9-15.7-9.9-27.5V91H584V51l48.6-17.7V51h16.7V91H632.6v26.2c0 3 .77 5.07 2.3 6.2 1.6 1.07 4.13 1.6 7.6 1.6H654zm56.78-46.4c1.33 2.47 3.4 4.17 6.2 5.1 2.8.87 6.5 1.3 11.1 1.3h53.1l-10.8 40h-40.4c-20.67 0-36.07-4.83-46.2-14.5-10.07-9.67-15.1-24.13-15.1-43.4s4.83-33.77 14.5-43.5c9.73-9.73 24.53-14.6 44.4-14.6 9.93 0 18.56 1.2 25.9 3.6 7.33 2.33 13.43 5.67 18.3 10 4.86 4.33 8.5 9.6 10.9 15.8 2.4 6.13 3.6 13 3.6 20.6 0 6.93-.97 13.47-2.9 19.6zm38.1-19.1c0-3.73-1.5-6.4-4.5-8-2.93-1.67-7.93-2.5-15-2.5-6.07 0-10.7.73-13.9 2.2-3.13 1.4-5.17 4.17-6.1 8.3zm190.89 37.4c-1.87 5.27-3.93 9.8-6.2 13.6-2.2 3.8-4.9 6.93-8.1 9.4-3.2 2.4-7.07 4.17-11.6 5.3-4.47 1.2-9.87 1.8-16.2 1.8-15.27 0-26.67-3.33-34.2-10-7.47-6.67-11.2-16.63-11.2-29.9 0-13.2 3.67-23.1 11-29.7s18.44-9.9 33.3-9.9c4.67 0 8.93.3 12.8.9 3.94.6 7.53 1.43 10.8 2.5 3.27 1 6.23 2.17 8.9 3.5 2.67 1.27 5.07 2.6 7.2 4V96.9c0-2.47-.73-4.73-2.2-6.8-1.47-2.13-3.63-3.97-6.5-5.5-2.86-1.6-6.47-2.83-10.8-3.7-4.27-.87-9.23-1.3-14.9-1.3-6.8 0-13.1.67-18.9 2-5.8 1.27-11.53 3.23-17.2 5.9L880.87 51h27.7c12 0 22.04 1.13 30.1 3.4 8.07 2.27 14.54 5.47 19.4 9.6 4.93 4.13 8.43 9.13 10.5 15 2.07 5.8 3.1 12.27 3.1 19.4V165h-40l6.3-27.2zm-25.3-7.8c4 0 7.4-.07 10.2-.2 2.8-.2 5.04-.5 6.7-.9 1.73-.4 2.97-.9 3.7-1.5.8-.67 1.2-1.47 1.2-2.4 0-.87-.4-1.6-1.2-2.2-.73-.6-1.97-1.1-3.7-1.5-1.66-.4-3.9-.67-6.7-.8-2.8-.2-6.2-.3-10.2-.3-4.13 0-7.63.1-10.5.3-2.8.13-5.07.4-6.8.8-1.73.33-3 .8-3.8 1.4-.73.6-1.1 1.37-1.1 2.3s.37 1.73 1.1 2.4c.8.6 2.07 1.1 3.8 1.5s4 .7 6.8.9c2.87.13 6.37.2 10.5.2zM983.61 22c0-3.2.53-6.13 1.6-8.8 1.13-2.73 2.67-5.07 4.6-7 1.93-2 4.23-3.53 6.9-4.6 2.73-1.07 5.7-1.6 8.9-1.6s6.13.53 8.8 1.6c2.73 1.07 5.07 2.6 7 4.6 1.93 1.93 3.43 4.27 4.5 7 1.13 2.67 1.7 5.6 1.7 8.8s-.57 6.17-1.7 8.9c-1.07 2.67-2.57 5-4.5 7-1.93 1.93-4.27 3.43-7 4.5-2.67 1.07-5.6 1.6-8.8 1.6s-6.17-.53-8.9-1.6c-2.67-1.07-4.97-2.57-6.9-4.5-1.93-2-3.47-4.33-4.6-7-1.07-2.73-1.6-5.7-1.6-8.9zm2 143V51h40V165z"/><path fill="#E05634" stroke="#E05634" stroke-width="4" d="M118.2 208.7c.5.1 1 .2 1.6.2h.3c3.2 0 5.1-2.3 8-6 2.9-3.8 6.8-8.9 14.6-8.9 7.7 0 11.6 5.1 14.6 8.9l.3.4c2.8 3.7 4.3 5.6 7.6 5.6 3.2 0 4.8-1.9 7.7-5.6l.3-.4c2.9-3.8 6.9-8.9 14.6-8.9H189c7.7 0 11.9 5.4 14.9 9.3 2.8 3.7 4.3 5.6 7.7 5.6 3.1 0 5-2.3 7.9-6 3-3.8 6.9-8.9 14.6-8.9s11.7 5.1 14.7 9l.2.3c2.8 3.7 4.3 5.6 7.7 5.6 3.1 0 5-2.3 7.9-6 3-3.8 6.9-8.9 14.6-8.9.6 0 1.2-.1 1.8 0 7.7 0 11.9 5.4 14.9 9.3 2.8 3.7 4.3 5.6 7.7 5.6 3.1 0 4.8-1.9 7.6-5.6l.3-.4c3-3.8 6.9-8.9 14.6-8.9s11.6 5.1 14.6 8.9l.3.4c2.8 3.7 4.3 5.6 7.7 5.6 3.1 0 4.8-1.9 7.6-5.6l.3-.4c3-3.8 6.9-8.9 14.6-8.9.6 0 1.2-.1 1.8 0 7.7 0 11.9 5.4 14.9 9.3 2.8 3.7 4.3 5.6 7.7 5.6 3.1 0 4.8-1.9 7.6-5.6l.3-.4c3-3.8 6.9-8.9 14.6-8.9s11.9 5.4 14.9 9.3c2.8 3.7 4.3 5.6 7.7 5.6 3.1 0 4.8-1.9 7.6-5.6l.3-.4c3-3.8 6.9-8.9 14.6-8.9.6 0 1.2-.1 1.8 0 7.7 0 11.9 5.4 14.9 9.3 2.8 3.7 4.3 5.6 7.7 5.6 3.1 0 4.8-1.9 7.6-5.6l.3-.4c3-3.8 6.9-8.9 14.6-8.9s11.7 5.1 14.6 8.9l.3.4c2.8 3.7 4.3 5.6 7.7 5.6 3.1 0 4.8-1.9 7.6-5.6l.3-.4c3-3.8 6.9-8.9 14.6-8.9.6 0 1.2-.1 1.8 0 7.7 0 11.9 5.4 14.9 9.3 2.8 3.7 4.3 5.6 7.7 5.6 3.1 0 4.8-1.9 7.6-5.6l.3-.4c3-3.8 6.9-8.9 14.6-8.9s11.6 5.1 14.6 8.9l.3.4c2.8 3.7 4.3 5.6 7.7 5.6 3.1 0 4.8-1.9 7.6-5.6l.3-.4c3-3.8 6.9-8.9 14.6-8.9.6 0 1.2-.1 1.8 0 7.7 0 11.9 5.4 14.9 9.3 2.8 3.7 4.3 5.6 7.7 5.6 3.1 0 4.8-1.9 7.6-5.6l.3-.4c3-3.8 6.9-8.9 14.6-8.9s11.6 5.1 14.6 8.9l.3.4c2.8 3.7 4.3 5.6 7.7 5.6 3.1 0 4.8-1.9 7.6-5.6l.3-.4c3-3.8 6.9-8.9 14.6-8.9s11.9 5.4 14.9 9.3l1.2 1.6c2.1 2.8 3.4 4.6 6.2 4.6l-2.5 8c-6.3 0-8.3-3.2-10.5-6.5-.5-.8-1-1.6-1.6-2.4-2.9-3.7-4.4-5.6-7.7-5.6s-4.8 1.9-7.7 5.6l-.2.4c-3 3.8-6.9 8.9-14.6 8.9-7.8 0-11.9-5.4-14.9-9.3-2.9-3.7-4.4-5.6-7.7-5.6s-4.8 1.9-7.7 5.6l-.2.4c-3 3.8-6.9 8.9-14.6 8.9-.7 0-1.3.1-1.8 0-7.8 0-11.9-5.4-14.9-9.3-2.9-3.7-4.4-5.6-7.7-5.6s-4.8 1.9-7.7 5.6l-.2.4c-3 3.8-6.9 8.9-14.6 8.9-7.8 0-11.9-5.4-14.9-9.3-2.9-3.7-4.4-5.6-7.7-5.6s-4.8 1.9-7.7 5.6l-.2.4c-3 3.8-6.9 8.9-14.6 8.9-.7 0-1.3.1-1.8 0-7.8 0-11.9-5.4-14.9-9.3-2.9-3.7-4.4-5.6-7.7-5.6s-5.1 2.3-7.9 6c-3 3.8-6.9 8.9-14.6 8.9-7.8 0-11.9-5.4-14.9-9.3-2.9-3.7-4.4-5.6-7.7-5.6s-4.8 1.9-7.7 5.6l-.2.4c-3 3.8-6.9 8.9-14.6 8.9-.7 0-1.3.1-1.8 0-7.8 0-11.9-5.4-14.9-9.3-2.9-3.7-4.4-5.6-7.7-5.6s-4.8 1.9-7.7 5.6l-.2.4c-3 3.8-6.9 8.9-14.6 8.9-7.8 0-11.9-5.4-14.9-9.3-2.9-3.7-4.4-5.6-7.7-5.6s-4.8 1.9-7.7 5.6l-.2.4c-3 3.8-6.9 8.9-14.6 8.9-.7 0-1.3.1-1.8 0-7.8 0-11.9-5.4-14.9-9.3-2.9-3.7-4.4-5.6-7.7-5.6s-5.1 2.3-7.9 6c-3 3.8-6.9 8.9-14.6 8.9-7.8 0-11.9-5.4-14.9-9.3-2.9-3.7-4.4-5.6-7.7-5.6s-4.8 1.9-7.7 5.6l-.2.4c-3 3.8-6.9 8.9-14.6 8.9-.7 0-1.3.1-1.8 0-7.8 0-11.9-5.4-14.9-9.3-2.9-3.7-4.4-5.6-7.7-5.6s-4.8 1.9-7.7 5.6l-.2.4c-3 3.8-6.9 8.9-14.6 8.9-7.8 0-11.9-5.4-14.9-9.3-2.9-3.7-4.4-5.6-7.7-5.6s-5.1 2.3-7.9 6c-3 3.8-6.9 8.9-14.6 8.9h-1.3c-7.7 0-11.9-5.4-14.9-9.3-2.8-3.7-4.3-5.6-7.6-5.6s-4.8 1.9-7.7 5.6l-.3.4c-2.9 3.8-6.8 8.9-14.6 8.9-7.7 0-11.9-5.4-14.9-9.3-2.8-3.7-4.3-5.6-7.6-5.6s-4.8 1.9-7.7 5.6l-.3.4c-2.9 3.8-6.8 8.9-14.6 8.9-1.5 0-2.9-.2-4.2-.6-5.3-1.4-8.6-5.6-11-8.8-2.9-3.7-4.4-5.6-7.7-5.6s-4.8 1.9-7.7 5.6l-.2.4c-3 3.8-6.9 8.9-14.6 8.9-7.8 0-11.9-5.4-14.9-9.3-2.9-3.7-4.4-5.6-7.7-5.6s-4.8 1.9-7.7 5.6l-.2.4c-3 3.8-6.9 8.9-14.6 8.9-7.8 0-11.9-5.4-14.9-9.3-2.9-3.7-7.9-8-11.2-8L7 193.9c7.7 0 11.9 5.4 14.9 9.3 2.8 3.7 4.3 5.6 7.7 5.6 3.1 0 4.8-1.9 7.6-5.6l.3-.4c3-3.8 6.9-8.9 14.6-8.9s11.6 5.1 14.6 8.9l.3.4c2.8 3.7 4.3 5.6 7.7 5.6 3.1 0 4.8-1.9 7.6-5.6l.3-.4c3-3.8 6.9-8.9 14.6-8.9 1.6 0 2.9.2 4.2.6 5.3 1.4 8.6 5.6 11.1 8.8 2.2 2.9 3.6 4.7 5.7 5.4z"/></svg>
